# xmcd CD database file
#
# Track frame offsets:
#	150
#	22084
#	40719
#	60556
#	71060
#	95191
#	107823
#	117067
#	131109
#	146568
#	166177
#	186511
#	202258
#	223329
#
# Disc length: 3258 seconds
#
# Revision: 1
# Processed by: cddbd v1.5.2PL0 Copyright (c) Steve Scherf et al.
# Submitted via: CDex 1.51
#
DISCID=e10cb80e
DTITLE=Alvin Lee - Saguitar
DYEAR=2007
DGENRE=Blues
TTITLE0=Anytime U Want Me
TTITLE1=The Squeeze
TTITLE2=It's Time To Play
TTITLE3=Midnite Train
TTITLE4=Motel Blues
TTITLE5=Only Here For The Ride
TTITLE6=Memphis
TTITLE7=Got A Lot Of Living To Do
TTITLE8=Blues Has Got A Hold On Me
TTITLE9=It's All Good
TTITLE10=Education
TTITLE11=Rapper
TTITLE12=Smoking Dope
TTITLE13=Rocking Rendezvous
EXTD=YEAR: 2007
EXTT0=
EXTT1=
EXTT2=
EXTT3=
EXTT4=
EXTT5=
EXTT6=
EXTT7=
EXTT8=
EXTT9=
EXTT10=
EXTT11=
EXTT12=
EXTT13=
PLAYORDER=
